<?xml version="1.0" encoding="UTF-8"?>
<svg width="50px" height="60px" viewBox="0 0 50 60" version="1.1" xmlns="http://www.w3.org/2000/svg" xmlns:xlink="http://www.w3.org/1999/xlink">
    <!-- Generator: Sketch 61.2 (89653) - https://sketch.com -->
    <title>Group 13</title>
    <desc>Created with Sketch.</desc>
    <defs>
        <polygon id="path-1" points="24.3583099 0.723380282 24.3583099 59.1549296 0 44.5470423 0 15.3312676"></polygon>
        <linearGradient x1="49.4093042%" y1="80.6871434%" x2="50.649605%" y2="42.5056893%" id="linearGradient-3">
            <stop stop-color="#00897B" offset="0%"></stop>
            <stop stop-color="#00BFA5" offset="100%"></stop>
        </linearGradient>
        <polygon id="path-4" points="0.170704225 0.723380282 24.3828169 15.3304225 24.3828169 44.5478873 0.170704225 59.1549296"></polygon>
        <linearGradient x1="50.506514%" y1="82.1871461%" x2="49.4024987%" y2="39.2983471%" id="linearGradient-6">
            <stop stop-color="#00897B" offset="0%"></stop>
            <stop stop-color="#00BFA5" offset="100%"></stop>
        </linearGradient>
        <path d="M19.3707042,0.185915493 C19.4467606,0.185915493 19.5228169,0.206197183 19.5904225,0.246760563 L19.5904225,0.246760563 L22.7171831,2.10507042 C22.8532394,2.18535211 22.9369014,2.33492958 22.9369014,2.49633803 L22.9369014,2.49633803 L22.9369014,9.35915493 C22.9369014,9.52056338 23.0197183,9.66929577 23.1549296,9.75042254 L23.1549296,9.75042254 L32.2301408,15.144507 C32.3653521,15.2247887 32.4490141,15.3743662 32.4490141,15.5349296 L32.4490141,15.5349296 L32.4490141,15.5898592 C32.4490141,15.9380282 32.0830986,16.1552113 31.7907042,15.9811268 L31.7907042,15.9811268 L27.6929577,13.535493 L27.6929577,32.4853521 L31.8,30.1673239 C32.0923944,30.0016901 32.4490141,30.2197183 32.4490141,30.563662 C32.4490141,30.7250704 32.3653521,30.8738028 32.2301408,30.9540845 L32.2301408,30.9540845 L22.6740845,36.6346479 C22.3816901,36.8087324 22.0166197,36.5915493 22.0166197,36.2433803 L22.0166197,36.2433803 L22.0166197,36.1935211 C22.0166197,36.0312676 22.0994366,35.8825352 22.236338,35.8022535 L22.236338,35.8022535 L26.5538028,33.2357746 C26.6890141,33.1546479 26.7726761,33.0050704 26.7726761,32.843662 L26.7726761,32.843662 L26.7726761,13.2549296 C26.7726761,13.0935211 26.6890141,12.9439437 26.5529577,12.863662 L26.5529577,12.863662 L22.236338,10.2971831 C22.0994366,10.2160563 22.0166197,10.0673239 22.0166197,9.90591549 L22.0166197,9.90591549 L22.0166197,3.04309859 C22.0166197,2.88169014 21.9329577,2.73211268 21.7969014,2.65183099 L21.7969014,2.65183099 L19.5904225,1.33943662 C19.4543662,1.25915493 19.2878873,1.25915493 19.151831,1.33943662 L19.151831,1.33943662 L1.22197183,11.9991549 C1.08676056,12.0794366 1.00309859,12.2290141 1.00309859,12.3904225 L1.00309859,12.3904225 L1.00309859,33.708169 C1.00309859,33.8695775 1.08676056,34.0183099 1.22197183,34.0994366 L1.22197183,34.0994366 L4.58873239,36.083662 C4.85492958,35.844507 5.20225352,35.6983099 5.58338028,35.6983099 C6.42169014,35.6983099 7.10028169,36.3980282 7.10028169,37.26 C7.10028169,38.1228169 6.42169014,38.8216901 5.58338028,38.8216901 C4.74591549,38.8216901 4.06732394,38.1228169 4.06732394,37.26 C4.06732394,37.1332394 4.08338028,37.0107042 4.11126761,36.8932394 L4.11126761,36.8932394 L0.301690141,34.6470423 C0.166478873,34.5659155 0.0828169014,34.416338 0.0828169014,34.2557746 L0.0828169014,34.2557746 L0.0828169014,11.843662 C0.0828169014,11.6822535 0.166478873,11.5335211 0.301690141,11.4523944 L0.301690141,11.4523944 L19.151831,0.246760563" id="path-7"></path>
        <linearGradient x1="49.9997191%" y1="-0.00063146613%" x2="49.9997191%" y2="115.408275%" id="linearGradient-9">
            <stop stop-color="#FFFFFF" offset="0%"></stop>
            <stop stop-color="#00BFA5" offset="100%"></stop>
        </linearGradient>
        <path d="M22.596338,0.169859155 C23.4371831,0.169859155 24.12,0.871267606 24.12,1.73661972 C24.12,1.88535211 24.0988732,2.02816901 24.0616901,2.16422535 L24.0616901,2.16422535 L32.4938028,7.17126761 C32.6366197,7.25577465 32.7253521,7.41295775 32.7253521,7.5828169 L32.7253521,7.5828169 L32.7253521,30.0430986 C32.7253521,30.2129577 32.6366197,30.3701408 32.4938028,30.455493 L32.4938028,30.455493 L13.5785915,41.6856338 C13.4357746,41.7701408 13.26,41.7701408 13.116338,41.6856338 L13.116338,41.6856338 L5.21915493,36.996338 C5.07633803,36.9109859 4.98760563,36.7546479 4.98760563,36.5847887 L4.98760563,36.5847887 L4.98760563,9.26788732 L0.903380282,11.7025352 C0.595774648,11.8859155 0.209577465,11.6569014 0.209577465,11.2909859 L0.209577465,11.2909859 C0.209577465,11.1169014 0.298309859,10.9605634 0.44028169,10.8752113 L0.44028169,10.8752113 L9.9971831,5.20140845 C10.3056338,5.01887324 10.6901408,5.24788732 10.6901408,5.61295775 C10.6901408,5.7828169 10.6022535,5.94 10.4594366,6.02450704 L10.4594366,6.02450704 L6.14366197,8.58760563 C6,8.67211268 5.91211268,8.82929577 5.91211268,8.99830986 L5.91211268,8.99830986 L5.91211268,35.9661972 C5.91211268,36.1343662 5.99915493,36.2907042 6.14028169,36.3752113 L6.14028169,36.3752113 L13.1078873,40.5887324 C13.2515493,40.6749296 13.4298592,40.6757746 13.5735211,40.5912676 L13.5735211,40.5912676 L31.5692958,29.9061972 C31.7129577,29.8216901 31.8008451,29.664507 31.8008451,29.4946479 L31.8008451,29.4946479 L31.8008451,8.13126761 C31.8008451,7.96140845 31.7129577,7.80507042 31.5692958,7.71971831 L31.5692958,7.71971831 L23.5495775,2.95774648 C23.2884507,3.17323944 22.9571831,3.30338028 22.596338,3.30338028 C21.7546479,3.30338028 21.0726761,2.60197183 21.0726761,1.73661972" id="path-10"></path>
        <linearGradient x1="49.9999995%" y1="-10.384075%" x2="49.9999995%" y2="100.031764%" id="linearGradient-12">
            <stop stop-color="#FFFFFF" offset="0%"></stop>
            <stop stop-color="#00BFA5" offset="100%"></stop>
        </linearGradient>
    </defs>
    <g id="entregables" stroke="none" stroke-width="1" fill="none" fill-rule="evenodd">
        <g id="04-Mobile_menu" transform="translate(-35.000000, -14.000000)">
            <g id="Group-13" transform="translate(35.000000, 14.000000)">
                <g id="Group-3" transform="translate(0.000000, 0.121352)">
                    <mask id="mask-2" fill="white">
                        <use xlink:href="#path-1"></use>
                    </mask>
                    <g id="Clip-2"></g>
                    <polygon id="Fill-1" fill="url(#linearGradient-3)" mask="url(#mask-2)" points="24.3583099 0.723380282 0 15.3312676 0 44.5470423 24.3583099 59.1549296"></polygon>
                </g>
                <g id="Group-6" transform="translate(25.352113, 0.121352)">
                    <mask id="mask-5" fill="white">
                        <use xlink:href="#path-4"></use>
                    </mask>
                    <g id="Clip-5"></g>
                    <polygon id="Fill-4" fill="url(#linearGradient-6)" mask="url(#mask-5)" points="0.170704225 0.723380282 0.170704225 59.1549296 24.383662 44.5470423 24.383662 15.3312676"></polygon>
                </g>
                <g id="Group-9" transform="translate(5.070423, 7.726986)">
                    <mask id="mask-8" fill="white">
                        <use xlink:href="#path-7"></use>
                    </mask>
                    <g id="Clip-8"></g>
                    <path d="M19.151831,0.246760563 L0.301690141,11.4523944 C0.166478873,11.5335211 0.0828169014,11.6822535 0.0828169014,11.843662 L0.0828169014,34.2557746 C0.0828169014,34.416338 0.166478873,34.5659155 0.301690141,34.6470423 L4.11126761,36.8932394 C4.08338028,37.0107042 4.06732394,37.1332394 4.06732394,37.26 C4.06732394,38.1228169 4.74591549,38.8216901 5.58338028,38.8216901 C6.42169014,38.8216901 7.10028169,38.1228169 7.10028169,37.26 C7.10028169,36.3980282 6.42169014,35.6983099 5.58338028,35.6983099 C5.20225352,35.6983099 4.85492958,35.844507 4.58873239,36.083662 L1.22197183,34.0994366 C1.08676056,34.0183099 1.00309859,33.8695775 1.00309859,33.708169 L1.00309859,12.3904225 C1.00309859,12.2290141 1.08676056,12.0794366 1.22197183,11.9991549 L19.151831,1.33943662 C19.2878873,1.25915493 19.4543662,1.25915493 19.5904225,1.33943662 L21.7969014,2.65183099 C21.9329577,2.73211268 22.0166197,2.88169014 22.0166197,3.04309859 L22.0166197,9.90591549 C22.0166197,10.0673239 22.0994366,10.2160563 22.236338,10.2971831 L26.5529577,12.863662 C26.6890141,12.9439437 26.7726761,13.0935211 26.7726761,13.2549296 L26.7726761,32.843662 C26.7726761,33.0050704 26.6890141,33.1546479 26.5538028,33.2357746 L22.236338,35.8022535 C22.0994366,35.8825352 22.0166197,36.0312676 22.0166197,36.1935211 L22.0166197,36.2433803 C22.0166197,36.5915493 22.3816901,36.8087324 22.6740845,36.6346479 L32.2301408,30.9540845 C32.3653521,30.8738028 32.4490141,30.7250704 32.4490141,30.563662 C32.4490141,30.2197183 32.0923944,30.0016901 31.8,30.1673239 L27.6929577,32.4853521 L27.6929577,13.535493 L31.7907042,15.9811268 C32.0830986,16.1552113 32.4490141,15.9380282 32.4490141,15.5898592 L32.4490141,15.5349296 C32.4490141,15.3743662 32.3653521,15.2247887 32.2301408,15.144507 L23.1549296,9.75042254 C23.0197183,9.66929577 22.9369014,9.52056338 22.9369014,9.35915493 L22.9369014,2.49633803 C22.9369014,2.33492958 22.8532394,2.18535211 22.7171831,2.10507042 L19.5904225,0.246760563 C19.5228169,0.206197183 19.4467606,0.185915493 19.3707042,0.185915493 C19.295493,0.185915493 19.2194366,0.206197183 19.151831,0.246760563" id="Fill-7" fill="url(#linearGradient-9)" mask="url(#mask-8)"></path>
                </g>
                <g id="Group-12" transform="translate(10.985915, 11.952338)">
                    <mask id="mask-11" fill="white">
                        <use xlink:href="#path-10"></use>
                    </mask>
                    <g id="Clip-11"></g>
                    <path d="M21.0726761,1.73661972 C21.0726761,2.60197183 21.7546479,3.30338028 22.596338,3.30338028 C22.9571831,3.30338028 23.2884507,3.17323944 23.5495775,2.95774648 L31.5692958,7.71971831 C31.7129577,7.80507042 31.8008451,7.96140845 31.8008451,8.13126761 L31.8008451,29.4946479 C31.8008451,29.664507 31.7129577,29.8216901 31.5692958,29.9061972 L13.5735211,40.5912676 C13.4298592,40.6757746 13.2515493,40.6749296 13.1078873,40.5887324 L6.14028169,36.3752113 C5.99915493,36.2907042 5.91211268,36.1343662 5.91211268,35.9661972 L5.91211268,8.99830986 C5.91211268,8.82929577 6,8.67211268 6.14366197,8.58760563 L10.4594366,6.02450704 C10.6022535,5.94 10.6901408,5.7828169 10.6901408,5.61295775 C10.6901408,5.24788732 10.3056338,5.01887324 9.9971831,5.20140845 L0.44028169,10.8752113 C0.298309859,10.9605634 0.209577465,11.1169014 0.209577465,11.2867606 L0.209577465,11.2909859 C0.209577465,11.6569014 0.595774648,11.8859155 0.903380282,11.7025352 L4.98760563,9.26788732 L4.98760563,36.5847887 C4.98760563,36.7546479 5.07633803,36.9109859 5.21915493,36.996338 L13.116338,41.6856338 C13.26,41.7701408 13.4357746,41.7701408 13.5785915,41.6856338 L32.4938028,30.455493 C32.6366197,30.3701408 32.7253521,30.2129577 32.7253521,30.0430986 L32.7253521,7.5828169 C32.7253521,7.41295775 32.6366197,7.25577465 32.4938028,7.17126761 L24.0616901,2.16422535 C24.0988732,2.02816901 24.12,1.88535211 24.12,1.73661972 C24.12,0.871267606 23.4371831,0.169859155 22.596338,0.169859155 C21.7546479,0.169859155 21.0726761,0.871267606 21.0726761,1.73661972" id="Fill-10" fill="url(#linearGradient-12)" mask="url(#mask-11)"></path>
                </g>
            </g>
        </g>
    </g>
</svg>