<?xml version="1.0" encoding="UTF-8"?>
<svg width="30px" height="30px" viewBox="0 0 30 30" version="1.1" xmlns="http://www.w3.org/2000/svg" xmlns:xlink="http://www.w3.org/1999/xlink">
    <!-- Generator: Sketch 61.2 (89653) - https://sketch.com -->
    <title>icono_tictoc</title>
    <desc>Created with Sketch.</desc>
    <g id="entregables" stroke="none" stroke-width="1" fill="none" fill-rule="evenodd">
        <g id="02-home_IT_summit_mensaje_form" transform="translate(-765.000000, -3954.000000)" fill="#00BFA5">
            <path d="M788,3967.75694 C786.298425,3967.80822 784.754175,3967.33996 783.360837,3966.37309 L783.360837,3972.99652 C783.360837,3976.30987 780.591482,3979 777.180418,3979 C773.769355,3979 771,3976.30987 771,3972.99652 C771,3969.6831 773.769355,3966.99303 777.180418,3966.99303 C777.46121,3966.99303 777.737725,3967.01119 778.008537,3967.04661 L778.008537,3970.31592 C777.746493,3970.23806 777.468482,3970.19624 777.180418,3970.19624 C775.618277,3970.19624 774.349972,3971.42821 774.349972,3972.94566 C774.349972,3974.4631 775.618277,3975.69514 777.180418,3975.69514 C778.725095,3975.69514 779.982422,3974.49052 780.010366,3972.99652 L780.011435,3972.99652 L780.011435,3964.51213 L780.007087,3964.51213 L780.007087,3960 L783.215486,3960 C783.222686,3960.02449 783.229743,3960.02623 783.236373,3960 L783.245925,3960.07299 L783.255976,3960.14479 L783.266455,3960.21563 L783.277505,3960.28555 L783.288981,3960.35457 L783.300957,3960.42297 L783.313503,3960.49081 L783.326549,3960.55816 L783.340164,3960.62503 L783.35435,3960.69168 L783.360837,3960.72098 C783.929335,3963.27759 785.654934,3964.41527 788,3964.51303 L788,3967.75694 Z M780,3954 C771.715671,3954 765,3960.71573 765,3969 C765,3977.28434 771.715671,3984 780,3984 C788.284258,3984 795,3977.28434 795,3969 C795,3960.71573 788.284258,3954 780,3954 L780,3954 Z" id="icono_tictoc"></path>
        </g>
    </g>
</svg>