<?xml version="1.0" encoding="UTF-8"?>
<svg width="59px" height="69px" viewBox="0 0 59 69" version="1.1" xmlns="http://www.w3.org/2000/svg" xmlns:xlink="http://www.w3.org/1999/xlink">
    <!-- Generator: Sketch 61.2 (89653) - https://sketch.com -->
    <title>IT_LOGO</title>
    <desc>Created with Sketch.</desc>
    <defs>
        <polygon id="path-1" points="28.824 0.856 28.824 70 0 52.714 0 18.142"></polygon>
        <linearGradient x1="49.4093042%" y1="80.6871434%" x2="50.649605%" y2="42.5056893%" id="linearGradient-3">
            <stop stop-color="#00897B" offset="0%"></stop>
            <stop stop-color="#00BFA5" offset="100%"></stop>
        </linearGradient>
        <polygon id="path-4" points="0.202 0.856 28.853 18.141 28.853 52.715 0.202 70"></polygon>
        <linearGradient x1="50.506514%" y1="82.1871461%" x2="49.4024987%" y2="39.2983471%" id="linearGradient-6">
            <stop stop-color="#00897B" offset="0%"></stop>
            <stop stop-color="#00BFA5" offset="100%"></stop>
        </linearGradient>
        <path d="M22.922,0.22 C23.012,0.22 23.102,0.244 23.182,0.292 L23.182,0.292 L26.882,2.491 C27.043,2.586 27.142,2.763 27.142,2.954 L27.142,2.954 L27.142,11.075 C27.142,11.266 27.24,11.442 27.4,11.538 L27.4,11.538 L38.139,17.921 C38.299,18.016 38.398,18.193 38.398,18.383 L38.398,18.383 L38.398,18.448 C38.398,18.86 37.965,19.117 37.619,18.911 L37.619,18.911 L32.77,16.017 L32.77,38.441 L37.63,35.698 C37.976,35.502 38.398,35.76 38.398,36.167 C38.398,36.358 38.299,36.534 38.139,36.629 L38.139,36.629 L26.831,43.351 C26.485,43.557 26.053,43.3 26.053,42.888 L26.053,42.888 L26.053,42.829 C26.053,42.637 26.151,42.461 26.313,42.366 L26.313,42.366 L31.422,39.329 C31.582,39.233 31.681,39.056 31.681,38.865 L31.681,38.865 L31.681,15.685 C31.681,15.494 31.582,15.317 31.421,15.222 L31.421,15.222 L26.313,12.185 C26.151,12.089 26.053,11.913 26.053,11.722 L26.053,11.722 L26.053,3.601 C26.053,3.41 25.954,3.233 25.793,3.138 L25.793,3.138 L23.182,1.585 C23.021,1.49 22.824,1.49 22.663,1.585 L22.663,1.585 L1.446,14.199 C1.286,14.294 1.187,14.471 1.187,14.662 L1.187,14.662 L1.187,39.888 C1.187,40.079 1.286,40.255 1.446,40.351 L1.446,40.351 L5.43,42.699 C5.745,42.416 6.156,42.243 6.607,42.243 C7.599,42.243 8.402,43.071 8.402,44.091 C8.402,45.112 7.599,45.939 6.607,45.939 C5.616,45.939 4.813,45.112 4.813,44.091 C4.813,43.941 4.832,43.796 4.865,43.657 L4.865,43.657 L0.357,40.999 C0.197,40.903 0.098,40.726 0.098,40.536 L0.098,40.536 L0.098,14.015 C0.098,13.824 0.197,13.648 0.357,13.552 L0.357,13.552 L22.663,0.292" id="path-7"></path>
        <linearGradient x1="49.9997191%" y1="-0.00063146613%" x2="49.9997191%" y2="115.408275%" id="linearGradient-9">
            <stop stop-color="#FFFFFF" offset="0%"></stop>
            <stop stop-color="#00BFA5" offset="100%"></stop>
        </linearGradient>
        <path d="M26.739,0.201 C27.734,0.201 28.542,1.031 28.542,2.055 C28.542,2.231 28.517,2.4 28.473,2.561 L28.473,2.561 L38.451,8.486 C38.62,8.586 38.725,8.772 38.725,8.973 L38.725,8.973 L38.725,35.551 C38.725,35.752 38.62,35.938 38.451,36.039 L38.451,36.039 L16.068,49.328 C15.899,49.428 15.691,49.428 15.521,49.328 L15.521,49.328 L6.176,43.779 C6.007,43.678 5.902,43.493 5.902,43.292 L5.902,43.292 L5.902,10.967 L1.069,13.848 C0.705,14.065 0.248,13.794 0.248,13.361 L0.248,13.361 C0.248,13.155 0.353,12.97 0.521,12.869 L0.521,12.869 L11.83,6.155 C12.195,5.939 12.65,6.21 12.65,6.642 C12.65,6.843 12.546,7.029 12.377,7.129 L12.377,7.129 L7.27,10.162 C7.1,10.262 6.996,10.448 6.996,10.648 L6.996,10.648 L6.996,42.56 C6.996,42.759 7.099,42.944 7.266,43.044 L7.266,43.044 L15.511,48.03 C15.681,48.132 15.892,48.133 16.062,48.033 L16.062,48.033 L37.357,35.389 C37.527,35.289 37.631,35.103 37.631,34.902 L37.631,34.902 L37.631,9.622 C37.631,9.421 37.527,9.236 37.357,9.135 L37.357,9.135 L27.867,3.5 C27.558,3.755 27.166,3.909 26.739,3.909 C25.743,3.909 24.936,3.079 24.936,2.055" id="path-10"></path>
        <linearGradient x1="49.9999995%" y1="-10.384075%" x2="49.9999995%" y2="100.031764%" id="linearGradient-12">
            <stop stop-color="#FFFFFF" offset="0%"></stop>
            <stop stop-color="#00BFA5" offset="100%"></stop>
        </linearGradient>
    </defs>
    <g id="entregables" stroke="none" stroke-width="1" fill="none" fill-rule="evenodd">
        <g id="01-home_IT_summit" transform="translate(-250.000000, -11.000000)">
            <g id="IT_LOGO" transform="translate(250.000000, 10.000000)">
                <g id="Group-13">
                    <g id="Group-3" transform="translate(0.000000, 0.143600)">
                        <mask id="mask-2" fill="white">
                            <use xlink:href="#path-1"></use>
                        </mask>
                        <g id="Clip-2"></g>
                        <polygon id="Fill-1" fill="url(#linearGradient-3)" mask="url(#mask-2)" points="28.824 0.856 0 18.142 0 52.714 28.824 70"></polygon>
                    </g>
                    <g id="Group-6" transform="translate(30.000000, 0.143600)">
                        <mask id="mask-5" fill="white">
                            <use xlink:href="#path-4"></use>
                        </mask>
                        <g id="Clip-5"></g>
                        <polygon id="Fill-4" fill="url(#linearGradient-6)" mask="url(#mask-5)" points="0.202 0.856 0.202 70 28.854 52.714 28.854 18.142"></polygon>
                    </g>
                    <g id="Group-9" transform="translate(6.000000, 9.143600)">
                        <mask id="mask-8" fill="white">
                            <use xlink:href="#path-7"></use>
                        </mask>
                        <g id="Clip-8"></g>
                        <path d="M22.663,0.292 L0.357,13.552 C0.197,13.648 0.098,13.824 0.098,14.015 L0.098,40.536 C0.098,40.726 0.197,40.903 0.357,40.999 L4.865,43.657 C4.832,43.796 4.813,43.941 4.813,44.091 C4.813,45.112 5.616,45.939 6.607,45.939 C7.599,45.939 8.402,45.112 8.402,44.091 C8.402,43.071 7.599,42.243 6.607,42.243 C6.156,42.243 5.745,42.416 5.43,42.699 L1.446,40.351 C1.286,40.255 1.187,40.079 1.187,39.888 L1.187,14.662 C1.187,14.471 1.286,14.294 1.446,14.199 L22.663,1.585 C22.824,1.49 23.021,1.49 23.182,1.585 L25.793,3.138 C25.954,3.233 26.053,3.41 26.053,3.601 L26.053,11.722 C26.053,11.913 26.151,12.089 26.313,12.185 L31.421,15.222 C31.582,15.317 31.681,15.494 31.681,15.685 L31.681,38.865 C31.681,39.056 31.582,39.233 31.422,39.329 L26.313,42.366 C26.151,42.461 26.053,42.637 26.053,42.829 L26.053,42.888 C26.053,43.3 26.485,43.557 26.831,43.351 L38.139,36.629 C38.299,36.534 38.398,36.358 38.398,36.167 C38.398,35.76 37.976,35.502 37.63,35.698 L32.77,38.441 L32.77,16.017 L37.619,18.911 C37.965,19.117 38.398,18.86 38.398,18.448 L38.398,18.383 C38.398,18.193 38.299,18.016 38.139,17.921 L27.4,11.538 C27.24,11.442 27.142,11.266 27.142,11.075 L27.142,2.954 C27.142,2.763 27.043,2.586 26.882,2.491 L23.182,0.292 C23.102,0.244 23.012,0.22 22.922,0.22 C22.833,0.22 22.743,0.244 22.663,0.292" id="Fill-7" fill="url(#linearGradient-9)" mask="url(#mask-8)"></path>
                    </g>
                    <g id="Group-12" transform="translate(13.000000, 14.143600)">
                        <mask id="mask-11" fill="white">
                            <use xlink:href="#path-10"></use>
                        </mask>
                        <g id="Clip-11"></g>
                        <path d="M24.936,2.055 C24.936,3.079 25.743,3.909 26.739,3.909 C27.166,3.909 27.558,3.755 27.867,3.5 L37.357,9.135 C37.527,9.236 37.631,9.421 37.631,9.622 L37.631,34.902 C37.631,35.103 37.527,35.289 37.357,35.389 L16.062,48.033 C15.892,48.133 15.681,48.132 15.511,48.03 L7.266,43.044 C7.099,42.944 6.996,42.759 6.996,42.56 L6.996,10.648 C6.996,10.448 7.1,10.262 7.27,10.162 L12.377,7.129 C12.546,7.029 12.65,6.843 12.65,6.642 C12.65,6.21 12.195,5.939 11.83,6.155 L0.521,12.869 C0.353,12.97 0.248,13.155 0.248,13.356 L0.248,13.361 C0.248,13.794 0.705,14.065 1.069,13.848 L5.902,10.967 L5.902,43.292 C5.902,43.493 6.007,43.678 6.176,43.779 L15.521,49.328 C15.691,49.428 15.899,49.428 16.068,49.328 L38.451,36.039 C38.62,35.938 38.725,35.752 38.725,35.551 L38.725,8.973 C38.725,8.772 38.62,8.586 38.451,8.486 L28.473,2.561 C28.517,2.4 28.542,2.231 28.542,2.055 C28.542,1.031 27.734,0.201 26.739,0.201 C25.743,0.201 24.936,1.031 24.936,2.055" id="Fill-10" fill="url(#linearGradient-12)" mask="url(#mask-11)"></path>
                    </g>
                </g>
            </g>
        </g>
    </g>
</svg>